<svg viewBox="0 0 512 512" xmlns="http://www.w3.org/2000/svg"><g id="Layer_1" data-name="Layer 1"><path d="m476.33 227.784a4.725 4.725 0 0 1 4.719 4.726v45.913a4.725 4.725 0 0 1 -4.732 4.726l-363-.476v-55.365z" fill="#c3d5ef"/><path d="m481.049 267.055v11.775a4.538 4.538 0 0 1 -4.728 4.323l-363.006-.138v-16.1z" fill="#b7c8ea"/><path d="m278.884 217.862h-55.365v-98.044h55.365z" fill="#c3d5ef"/><path d="m278.884 217.864h-15.119v-98.044h15.119z" fill="#b7c8ea"/><path d="m294.034 296.846h-86.147a10.529 10.529 0 0 1 -10.53-10.53v-61.3a10.53 10.53 0 0 1 10.53-10.531h86.147a10.53 10.53 0 0 1 10.53 10.531v61.3a10.529 10.529 0 0 1 -10.53 10.53z" fill="#365e7d"/><path d="m304.564 268.144v18.172a10.529 10.529 0 0 1 -10.53 10.53h-86.147a10.53 10.53 0 0 1 -10.531-10.53v-18.172a10.731 10.731 0 0 0 9.736 6.133h87.737a10.729 10.729 0 0 0 9.735-6.133z" fill="#2b4d66"/><path d="m30.951 295.89v-80.451a13.377 13.377 0 0 1 13.378-13.378h55.607a13.378 13.378 0 0 1 13.379 13.378v80.451a13.378 13.378 0 0 1 -13.379 13.378h-55.607a13.377 13.377 0 0 1 -13.378-13.378z" fill="#365e7d"/><path d="m62.4 309.268h-18.071a13.378 13.378 0 0 1 -13.378-13.378v-80.451a13.378 13.378 0 0 1 13.378-13.379h18.071a13.379 13.379 0 0 0 -13.378 13.379v80.451a13.379 13.379 0 0 0 13.378 13.378z" fill="#2b4d66"/><path d="m322.18 30.155h145.873a13 13 0 0 1 13 13v29.369a13 13 0 0 1 -13 13h-145.873z" fill="#c3d5ef"/><path d="m481.049 65.47v7.054a13 13 0 0 1 -13 13h-145.869v-13.717h148.042c4.487 0 8.445-2.964 10.827-6.337z" fill="#b7c8ea"/><path d="m322.18 91.716h-17.258a21.182 21.182 0 0 0 -21.157 21.157v21.621l-66.09.113v-48.255a60.8 60.8 0 0 1 60.725-60.727h43.78z" fill="#365e7d"/><path d="m322.18 71.807v19.909h-17.258a21.181 21.181 0 0 0 -21.157 21.157v21.621l-20 .034v-21.655a41.209 41.209 0 0 1 38.415-41.066z" fill="#2b4d66"/><path d="m99.815 309.268v176.4c0 7.888-5.818 14.283-13 14.283h-29.369c-7.178 0-13-6.395-13-14.283v-176.4zm0-107.207v-176.399c0-7.889-5.818-14.283-13-14.283h-29.369c-7.178 0-13 6.394-13 14.283v176.4z" fill="#c3d5ef"/><path d="m62.271 202.06h-17.821v-176.398c0-7.889 5.818-14.283 13-14.283h13.3a14.335 14.335 0 0 0 -8.479 13.421zm0 284.465v-177.257h-17.821v176.4c0 7.888 5.818 14.283 13 14.283h13.3a14.336 14.336 0 0 1 -8.479-13.426z" fill="#b7c8ea"/><path d="m397.993 396.529-21.693 11.246-17.649-42.61 21.689-11.246z" fill="#f5f5f5"/><path d="m384.971 402.152-8.667 5.623-17.649-42.61 8.666-5.623z" fill="#e6e6e6"/><path d="m423.392 309.574a96.332 96.332 0 1 1 -52.134-125.864 96.333 96.333 0 0 1 52.134 125.864z" fill="#60b8fe"/><path d="m342.119 368.75a96.349 96.349 0 1 1 -.013-192.082 96.356 96.356 0 0 0 .013 192.082z" fill="#23a8fe"/><path d="m399.519 299.685a70.492 70.492 0 1 1 -38.15-92.1 70.491 70.491 0 0 1 38.15 92.1z" fill="#f5f5f5"/><path d="m401.912 482.657-29.8-72.554a3.891 3.891 0 0 1 2.105-5.084l1.527-.632 22.678-9.394 1.527-.632a3.889 3.889 0 0 1 5.083 2.105l29.8 72.555c10.659 25.734-22.261 39.37-32.92 13.636z" fill="#365e7d"/><path d="m428.06 494.321c-8.364 4.6-20.443 2.109-26.148-11.664l-29.8-72.554a3.891 3.891 0 0 1 2.105-5.084l1.527-.632 5.717-2.369 32.966 79.087c3.159 7.629 8.273 11.795 13.633 13.216z" fill="#2b4d66"/><path d="m290.765 134.83v-21.622a14.172 14.172 0 0 1 14.157-14.156h17.258a7 7 0 0 0 6.95-6.2h138.923a20.018 20.018 0 0 0 20-20v-29.366a20.018 20.018 0 0 0 -20-20h-139.33a7 7 0 0 0 -6.543-4.529h-43.78a67.8 67.8 0 0 0 -67.728 67.727v48.255a7 7 0 0 0 5.624 6.863l.2 66.012h-8.614a17.547 17.547 0 0 0 -16.9 12.927l-70.676-.092v-4.879a20.392 20.392 0 0 0 -13.5-19.157v-170.613c0-11.736-8.97-21.284-20-21.284h-29.36c-11.026 0-20 9.548-20 21.284v170.617a20.394 20.394 0 0 0 -13.5 19.157v80.452a20.394 20.394 0 0 0 13.5 19.157v170.617c0 11.735 8.97 21.283 20 21.283h29.373c11.026 0 20-9.548 20-21.283v-170.617a20.394 20.394 0 0 0 13.5-19.157v-6.208l70.389.092a17.558 17.558 0 0 0 17.184 14.072h29.678a102.006 102.006 0 0 0 117.53 69.118l11.721 28.3a10.993 10.993 0 0 0 -.935 1.768 10.768 10.768 0 0 0 -.008 8.285l29.512 71.85c4.17 10.066 11.878 16.54 21.148 17.761a23.817 23.817 0 0 0 21.983-9.106c5.688-7.414 6.564-17.436 2.4-27.5l-29.51-71.845a10.829 10.829 0 0 0 -9.764-6.691l-11.235-27.122a102.247 102.247 0 0 0 45.476-68.568l32.625.043h.026a19.511 19.511 0 0 0 19.51-19.511v-30.344a19.538 19.538 0 0 0 -19.485-19.511l-45.378-.059a102.273 102.273 0 0 0 -127.35-42.65 104.2 104.2 0 0 0 -10 4.8l-.168-41.632a7 7 0 0 0 5.097-6.738zm183.284-91.344v29.374a6 6 0 0 1 -6 6h-138.869v-41.37h138.873a6 6 0 0 1 5.996 5.996zm-249.374 43.2a53.788 53.788 0 0 1 53.725-53.725h36.78v52.091h-10.258a28.188 28.188 0 0 0 -28.157 28.156v14.634l-52.09.089zm-118.361 209.54a6.385 6.385 0 0 1 -6.377 6.378h-55.608a6.386 6.386 0 0 1 -6.378-6.378v-80.452a6.385 6.385 0 0 1 6.378-6.378h55.608a6.385 6.385 0 0 1 6.377 6.378zm-48.868-277.512h29.373c3.306 0 6 3.267 6 7.284v169.402h-41.369v-169.4c0-4.019 2.69-7.286 5.996-7.286zm29.373 474.572h-29.373c-3.306 0-6-3.267-6-7.283v-169.403h41.369v169.4c0 4.019-2.69 7.286-5.996 7.286zm33.495-258.633 70.042.092v41.365l-70.042-.092zm87.573 55.529a3.535 3.535 0 0 1 -3.531-3.531v-61.3a3.535 3.535 0 0 1 3.531-3.531h38.465a103.958 103.958 0 0 0 -5.918 11.979 101.753 101.753 0 0 0 -6.3 56.385zm220.086 179.8.007.02c2.237 5.4 2.035 10.24-.567 13.633a9.822 9.822 0 0 1 -9.048 3.748c-4.239-.559-7.805-3.839-10.033-9.219l-28.316-68.937 19.657-8.142zm-39.618-79.363-9.329 3.864-10.317-24.908q4.768-1.666 9.362-3.784zm80.191-155.51a5.518 5.518 0 0 1 5.5 5.511v30.344a5.511 5.511 0 0 1 -5.51 5.511h-.008l-31.21-.041a102.621 102.621 0 0 0 -7.278-41.375zm-133.419-50.509a88.37 88.37 0 1 1 -81.758 54.552 87.913 87.913 0 0 1 81.758-54.552zm-79.134 23.216h-25.493l-.2-65.9 41.372-.071.2 50.522a101.031 101.031 0 0 0 -15.879 15.451zm49.633 136.1a76.789 76.789 0 1 0 -41.558-100.329 76.364 76.364 0 0 0 41.558 100.328zm-28.626-94.972a62.788 62.788 0 1 1 33.98 82.037 62.885 62.885 0 0 1 -33.98-82.037z"/></g></svg>