<svg id="Layer_1" enable-background="new 0 0 512 512" viewBox="0 0 512 512" xmlns="http://www.w3.org/2000/svg"><g><g><g clip-rule="evenodd" fill-rule="evenodd"><path d="m235.763 450.487c0 60.683-219.761 60.683-219.761 0 0-60.682 49.201-109.876 109.884-109.876 60.684 0 109.877 49.194 109.877 109.876z" fill="#c6ea94"/><path d="m201.968 484.411c-41.325 15.444-110.848 15.443-152.17 0v-113.19c6.39-6.134 13.52-11.503 21.243-15.96v28.906c0 7.96 6.493 14.453 14.453 14.453h80.779c7.96 0 14.453-6.492 14.453-14.453v-28.91c7.723 4.457 14.853 9.826 21.243 15.96v113.194z" fill="#66d4f1"/><path d="m175.679 491.553c-30.968 5.92-68.625 5.919-99.592 0v-35.346h99.592z" fill="#4fc0e8"/><path d="m75.101 260.559c0 28.049 22.736 50.785 50.785 50.785s50.785-22.736 50.785-50.785c0-28.041-22.736-50.778-50.785-50.778-28.048.001-50.785 22.738-50.785 50.778z" fill="#efc7a4"/><path d="m65.982 235.76v.005h119.801v-.005c0-26.99-17.859-49.81-42.409-57.294v-6.85c0-7.537-6.147-13.684-13.684-13.684h-7.616c-7.537 0-13.684 6.147-13.684 13.684v6.85c-24.549 7.484-42.408 30.304-42.408 57.294z" fill="#fdcd56"/><path d="m60.253 225.625h131.26c2.754 0 5 2.246 5 5v14.609c0 2.754-2.246 5-5 5h-131.26c-2.754 0-5-2.246-5-5v-14.609c0-2.754 2.246-5 5-5z" fill="#f5b945"/></g><g><g clip-rule="evenodd" fill-rule="evenodd"><path d="m495.997 290.873v-39.473c0-7.727-6.302-14.029-14.03-14.029h-34.1c-7.727 0-14.03 6.302-14.03 14.029v15.435z" fill="#a9b0bb"/><path d="m394.552 181.715h85.077c9.015 0 16.368 7.354 16.368 16.369v6.081c0 3.864-3.151 7.015-7.014 7.015h-71.514c-5.424 0-9.821 4.397-9.821 9.821v101.997l10.871 10.066-10.871 15.785v14.175c0 8.101-6.63 14.732-14.733 14.732s-14.732-6.629-14.732-14.732v-164.94c.001-9.015 7.354-16.369 16.369-16.369z" fill="#a9b0bb"/><path d="m495.997 266.835v202.71c0 14.545-11.901 26.445-26.445 26.445-14.545 0-26.445-11.9-26.445-26.445v-106.691l-35.459-13.344v-42.88h-36.533v-32.78c0-3.864 3.152-7.015 7.015-7.015z" fill="#f76c82"/><path d="m368.082 328.516h50.97c3.864 0 7.015-3.151 7.015-7.015v-15.436c0-3.864-3.151-7.015-7.015-7.015h-50.97c-3.864 0-7.015 3.151-7.015 7.015v15.436c.001 3.864 3.152 7.015 7.015 7.015z" fill="#636c77"/></g></g><g clip-rule="evenodd" fill-rule="evenodd"><path d="m38.22 44.087h218.965c29.772 0 54 24.228 54 54v113.198h-48v-113.198c0-3.275-2.725-6-6-6h-218.965z" fill="#cad0d7"/><g fill="#a9b0bb"><path d="m16.002 112.174v-88.174c0-4.406 3.594-8 8-8h16.218c4.406 0 8 3.594 8 8v88.174c0 4.406-3.594 8-8 8h-16.218c-4.406 0-8-3.594-8-8z"/><path d="m331.272 233.502h-88.174c-4.406 0-8-3.594-8-8v-16.218c0-4.406 3.594-8 8-8h88.174c4.406 0 8 3.594 8 8v16.218c0 4.406-3.594 8-8 8z"/><path d="m263.185 118.087h48v-20c0-29.772-24.228-54-54-54h-20.001v48h20.001c3.274 0 6 2.725 6 6z"/></g></g></g><path clip-rule="evenodd" d="m175.933 218.625h-100.102c4.389-12.849 13.556-23.51 25.557-29.768v14.416c0 3.867 3.135 7.001 7 7.001 3.867 0 7-3.133 7-7.001v-31.659c0-3.684 2.999-6.681 6.684-6.681h7.616c3.685 0 6.684 2.997 6.684 6.681v31.659c0 3.867 3.133 7.001 7 7.001 3.865 0 6.998-3.133 6.998-7.001v-14.411c11.988 6.257 21.172 16.928 25.563 29.763zm13.577 24.606h-127.258v-10.605h127.258zm-19.841 17.328c0 24.145-19.641 43.783-43.784 43.783-24.144 0-43.785-19.638-43.785-43.783 0-1.11.055-2.221.138-3.326h87.293c.083 1.105.138 2.216.138 3.326zm-39.98-109.627h-7.616c-11.406 0-20.685 9.278-20.685 20.682v1.882c-19.812 7.782-34.755 24.55-40.188 45.129h-5.949c-3.867 0-7 3.133-7 7.001v24.606c0 3.867 3.133 7.001 7 7.001h12.951c-.062 1.11-.103 2.216-.103 3.326 0 31.861 25.923 57.785 57.785 57.785s57.785-25.924 57.785-57.785c0-1.11-.039-2.216-.103-3.326h12.944c3.867 0 7-3.133 7-7.001v-24.606c0-3.867-3.133-7.001-7-7.001h-5.954c-5.431-20.555-20.408-37.352-40.185-45.129v-1.882c.001-11.404-9.277-20.682-20.682-20.682zm331.443 317.717c0-4.653 3.772-8.422 8.421-8.422 4.651 0 8.423 3.769 8.423 8.422 0 4.648-3.772 8.417-8.423 8.417-4.649 0-8.421-3.768-8.421-8.417zm-128.861-242.148h-90.175v-18.217h90.175zm-62.087-101.413h34v69.194h-34zm-26.002-40.001v-34.002h13.001c25.917 0 47 21.087 47 47.002v12.999h-34v-12.999c0-7.17-5.832-13-13.001-13zm-188.964-34.002h174.965v34.002h-174.965zm-14 62.09h-18.217v-90.178h18.217zm298.053 81.107h-21.087v-96.195c0-33.635-27.365-60.999-61.001-60.999h-201.965v-21.086c0-3.868-3.134-7.001-7-7.001h-32.217c-3.867 0-7 3.133-7 7.001v104.17c0 3.867 3.133 7.001 7 7.001h32.217c3.867 0 7-3.133 7-7.001v-21.088h200.965v95.198h-21.087c-3.867 0-6.999 3.133-6.999 7.001v32.219c0 3.867 3.132 7.001 6.999 7.001h104.175c3.865 0 7-3.133 7-7.001v-32.219c0-3.868-3.135-7.001-7-7.001zm45.907 65.548v-61.756c0-5.166 4.203-9.367 9.371-9.367h85.081c5.166 0 9.372 4.202 9.372 9.367v6.098h-71.535c-9.276 0-16.822 7.546-16.822 16.825v38.834h-15.467zm103.825 14.001h-110.893v18.217h47.956c3.865 0 6.998 3.133 6.998 7.001v29.467c0 3.867-3.133 7.001-6.998 7.001h-11.42v9.151l30.925 11.635c2.729 1.026 4.536 3.637 4.536 6.554v106.696c0 10.722 8.724 19.445 19.446 19.445s19.449-8.723 19.449-19.445v-195.722zm-48.166-29.471v15.47h48.166v-15.465zm-47.925 126.396c-4.263 0-7.733-3.467-7.733-7.73v-27.509h15.467v27.509c0 4.262-3.469 7.73-7.734 7.73zm-24.849-64.706h51.004v15.465h-51.004zm49.404-87.877h78.536c3.863 0 6.996-3.133 6.996-7.001v-13.098c0-12.887-10.482-23.369-23.369-23.369h-85.081c-12.887 0-23.37 10.482-23.37 23.369v61.756h-.07c-3.865 0-7 3.133-7 7.001v25.218h-3.047c-3.865 0-7 3.133-7 7.001v29.467c0 3.867 3.135 7.001 7 7.001h10.117v27.509c0 11.983 9.75 21.732 21.732 21.732 11.985 0 21.735-9.749 21.735-21.732v-3.402l21.46 8.074v101.855c0 18.443 15.004 33.447 33.447 33.447s33.446-15.004 33.446-33.447v-232.19c0-3.867-3.133-7.001-6.996-7.001h-62.166c-1.857 0-3.636.739-4.95 2.051-1.312 1.313-2.051 3.091-2.051 4.95v22.466h-12.19v-38.834c0-1.562 1.266-2.823 2.821-2.823zm-208.501 255.595v-83.878c12.44 17.008 19.795 37.958 19.795 60.594 0 8.897-7.26 16.905-19.795 23.284zm-125.88 11.988v-22.55h85.593v22.55c-12.903 2.094-27.349 3.242-42.798 3.242-15.447 0-29.894-1.148-42.795-3.242zm-60.085-35.272c0-22.635 7.355-43.586 19.795-60.594v83.878c-12.535-6.379-19.795-14.387-19.795-23.284zm150.722-91.048v24.729c0 4.112-3.343 7.457-7.453 7.457h-80.78c-4.109 0-7.453-3.345-7.453-7.457v-24.729c14.302-7.546 30.584-11.823 47.847-11.823 17.261 0 33.539 4.277 47.839 11.823zm1.954 89.768c3.867 0 7 3.138 7 7.001v26.766c4.35-1.035 8.455-2.197 12.288-3.467v-105.186c-2.318-2.103-4.736-4.103-7.241-5.994v15.841c0 11.833-9.625 21.454-21.453 21.454h-80.78c-11.828 0-21.453-9.622-21.453-21.454v-15.836c-2.505 1.886-4.921 3.886-7.243 5.994v105.182c3.833 1.27 7.939 2.432 12.289 3.467v-26.766c0-3.863 3.133-7.001 7-7.001h99.593zm-49.792-115.593c-64.451 0-116.884 52.431-116.884 116.873 0 12.035 6.752 28.864 38.92 40.706 20.683 7.617 48.37 11.809 77.961 11.809 58.178 0 116.881-16.236 116.881-52.515-.001-64.442-52.431-116.873-116.878-116.873z" fill-rule="evenodd"/></g></svg>