<svg id="Layer_1" enable-background="new 0 0 512 512" viewBox="0 0 512 512" xmlns="http://www.w3.org/2000/svg"><g clip-rule="evenodd" fill-rule="evenodd"><g><g><path d="m468.474 253.037v79.986h-424.947c-15.203 0-27.527-17.905-27.527-39.993 0-22.087 12.324-39.993 27.526-39.993z" fill="#a9b0bb"/><ellipse cx="468.474" cy="293.03" fill="#636c77" rx="27.526" ry="39.993"/></g><ellipse cx="256.001" cy="401.241" fill="#636c77" rx="41.922" ry="41.922" transform="matrix(.055 -.999 .999 .055 -158.783 634.662)"/><path d="m241.409 484.609h29.183v-71.439c0-8.025-6.566-14.592-14.592-14.592-8.025 0-14.592 6.566-14.592 14.592v71.439z" fill="#cad0d7"/><ellipse cx="104.029" cy="401.241" fill="#636c77" rx="41.922" ry="41.922" transform="matrix(.999 -.045 .045 .999 -18.075 5.126)"/><path d="m89.437 484.609h29.183v-71.439c0-8.025-6.566-14.592-14.592-14.592-8.025 0-14.592 6.566-14.592 14.592v71.439z" fill="#cad0d7"/><ellipse cx="407.973" cy="401.241" fill="#636c77" rx="41.922" ry="41.922" transform="matrix(.999 -.045 .045 .999 -17.763 18.899)"/><path d="m393.381 484.609h29.183v-71.439c0-8.025-6.566-14.592-14.592-14.592s-14.592 6.566-14.592 14.592v71.439z" fill="#cad0d7"/><path d="m32.579 496h446.842c2.24 0 4.14-1.411 4.787-3.556s-.156-4.371-2.022-5.61l-24.93-16.541c-.856-.568-1.737-.834-2.764-.834h-396.982c-1.027 0-1.908.266-2.764.834l-24.93 16.541c-1.867 1.238-2.669 3.465-2.023 5.61.647 2.145 2.546 3.556 4.786 3.556z" fill="#a9b0bb"/><g><path d="m408.251 29.724v55.233c0 9.493.524 19.34 2.991 28.546 4.996 18.645 6.181 39.611-2.29 57.451-10.262 21.615-31.248 32.081-53.863 36.185-22.345 4.055-44.855 6.564-67.276 10.009-11.954 1.837-22.017 3.744-28.492 6.044l-6.64-18.828c7.807-2.773 19.085-4.926 32.231-6.946 22.206-3.411 44.543-5.874 66.663-9.888 15.983-2.901 31.983-9.613 39.332-25.092 6.38-13.437 4.777-29.83 1.04-43.779-2.883-10.759-3.694-22.592-3.694-33.702v-55.233z" fill="#636c77"/><ellipse cx="256.001" cy="211.115" fill="#cad0d7" rx="41.922" ry="41.922" transform="matrix(.055 -.999 .999 .055 31.052 455.05)"/><path d="m241.409 137.748h29.183v61.438c0 8.026-6.566 14.592-14.592 14.592-8.025 0-14.592-6.566-14.592-14.592v-61.438z" fill="#a9b0bb"/><path d="m225.909 110.163h60.184c2.754 0 5 2.246 5 5v27.485c0 2.754-2.246 5-5 5h-60.184c-2.754 0-5-2.246-5-5v-27.485c0-2.754 2.246-5 5-5z" fill="#cad0d7"/><path d="m210.192 50.634h91.616c2.754 0 5 2.246 5 5v63.889c0 2.754-2.246 5-5 5h-91.616c-2.754 0-5-2.246-5-5v-63.889c.001-2.754 2.247-5 5-5z" fill="#a9b0bb"/><path d="m192.633 25.97h126.735c2.754 0 5 2.246 5 5v26.173c0 2.754-2.246 5-5 5h-126.735c-2.754 0-5-2.246-5-5v-26.173c0-2.754 2.246-5 5-5z" fill="#cad0d7"/><path d="m169.308 16h265.703c2.754 0 5 2.246 5 5v13.018c0 2.754-2.246 5-5 5h-265.703c-2.754 0-5-2.246-5-5v-13.018c0-2.754 2.246-5 5-5z" fill="#a9b0bb"/></g></g><path d="m39.212 489.003 18.899-12.543h395.781l18.899 12.543zm57.225-75.833c0-4.183 3.406-7.589 7.594-7.589 4.182 0 7.589 3.406 7.589 7.589v49.292h-15.183zm-27.331-11.927c0 10.835 5.095 20.908 13.329 27.429v-15.502c0-11.899 9.687-21.591 21.595-21.591 11.903 0 21.59 9.692 21.59 21.591v15.502c8.233-6.521 13.329-16.594 13.329-27.429 0-19.252-15.667-34.924-34.919-34.924-19.256 0-34.924 15.672-34.924 34.924zm179.302 11.927c0-4.183 3.406-7.589 7.594-7.589 4.183 0 7.589 3.406 7.589 7.589v49.292h-15.183zm-27.33-11.927c0 10.835 5.095 20.908 13.333 27.429v-15.502c0-11.899 9.683-21.591 21.591-21.591 11.903 0 21.59 9.692 21.59 21.591v15.502c8.238-6.521 13.329-16.594 13.329-27.429 0-19.252-15.667-34.924-34.919-34.924-19.257 0-34.924 15.672-34.924 34.924zm179.301 11.927c0-4.183 3.411-7.589 7.594-7.589 4.187 0 7.589 3.406 7.589 7.589v49.292h-15.183zm-27.33-11.927c0 10.835 5.09 20.908 13.333 27.429v-15.502c0-11.899 9.687-21.591 21.591-21.591 11.908 0 21.586 9.692 21.586 21.591v15.502c8.243-6.521 13.329-16.594 13.329-27.429 0-19.252-15.658-34.924-34.915-34.924-19.253 0-34.924 15.672-34.924 34.924zm126.819 88.926-40-26.54c-1.148-.757-2.484-1.167-3.868-1.167h-26.441v-17.323c16.533-8.149 27.33-25.208 27.33-43.896 0-26.973-21.938-48.921-48.916-48.921-26.973 0-48.921 21.948-48.921 48.921 0 18.688 10.797 35.747 27.33 43.896v17.323h-108.79v-17.323c16.523-8.149 27.326-25.208 27.326-43.896 0-26.973-21.943-48.921-48.916-48.921-26.978 0-48.926 21.948-48.926 48.921 0 18.688 10.807 35.747 27.335 43.896v17.323h-108.79v-17.323c16.523-8.149 27.33-25.208 27.33-43.896 0-26.973-21.948-48.921-48.921-48.921-26.978 0-48.926 21.948-48.926 48.921 0 18.688 10.807 35.747 27.331 43.896v17.323h-26.436c-1.374 0-2.719.409-3.867 1.167l-40.001 26.54c-2.573 1.712-3.726 4.902-2.832 7.852.889 2.959 3.613 4.978 6.7 4.978h480.001c3.091 0 5.811-2.018 6.7-4.978.889-2.949-.259-6.139-2.832-7.852zm-456.342-230.127h400.151c-6.046 8.417-9.73 20.009-9.73 32.99s3.684 24.569 9.73 33h-400.151c-11.127 0-20.527-15.112-20.527-33 0-17.883 9.4-32.99 20.527-32.99zm177.552-48.921c0-10.84 5.095-20.908 13.333-27.43v15.498c0 11.903 9.683 21.591 21.591 21.591 11.903 0 21.59-9.687 21.59-21.591v-15.498c8.238 6.521 13.329 16.59 13.329 27.43 0 19.252-15.667 34.919-34.919 34.919-19.257 0-34.924-15.667-34.924-34.919zm42.513-56.473h-15.183v44.541c0 4.192 3.406 7.594 7.594 7.594 4.183 0 7.589-3.402 7.589-7.594zm-35.682-23.129h56.185v9.132h-56.185zm-15.719-62.372h87.623v48.375h-87.623zm-17.558-23.128h122.74v9.132h-122.74zm-23.322-23.022h261.697v9.024h-261.697zm233.172 92.324c-2.86-10.68-3.232-21.84-3.232-30.361v-38.941h-5.999v38.941c0 12.778 1.129 23.209 3.458 31.89 5.171 19.29 4.672 35.639-1.477 48.591-7.212 15.187-22.15 24.94-44.414 28.977-13.87 2.522-27.98 4.451-41.629 6.323-2.399.329-4.789.668-7.179.997.381 1.934.64 3.9.781 5.89 2.47-.348 4.94-.701 7.41-1.04 13.691-1.882 27.848-3.83 41.638-6.337 24.291-4.399 40.711-15.272 48.789-32.303 8.431-17.75 5.664-38.419 1.854-52.627zm-126.89 39.327v12.571c9.344 4.611 16.858 12.073 21.619 21.049 3.359-.456 6.719-.936 10.068-1.398 13.513-1.849 27.472-3.759 41.04-6.234 17.822-3.228 29.02-10.158 34.261-21.2 5.839-12.289 3.548-27.966.598-38.966-2.635-9.871-3.929-21.492-3.929-35.512v-38.939h-49.881v16.133c0 3.858-3.138 6.996-7.001 6.996h-10.557v55.371c0 3.872-3.138 7.001-7.001 7.001h-8.718v16.133c0 3.867-3.133 6.996-7.001 6.996h-13.498zm211.407 138.384c0 17.888-9.4 33-20.527 33-11.122 0-20.523-15.112-20.523-33 0-17.883 9.4-32.99 20.523-32.99 11.127 0 20.527 15.107 20.527 32.99zm-445.473 46.997h424.946c19.355 0 34.529-20.65 34.529-46.997 0-26.352-15.173-46.992-34.529-46.992h-178.257c6.606-6.469 11.386-14.801 13.493-24.131 3.463-.48 6.93-.969 10.402-1.449 13.837-1.91 28.149-3.882 42.231-6.427 28.568-5.194 48.949-19.041 58.938-40.071 10.252-21.6 7.142-45.783 2.719-62.274-2.437-9.099-2.748-19.059-2.748-26.728v-38.941h24.757c3.872 0 7.001-3.129 7.001-6.996v-23.021c0-3.863-3.129-7.001-7.001-7.001h-275.698c-3.868 0-7.001 3.138-7.001 7.001v23.021c0 3.867 3.133 6.996 7.001 6.996h16.326v16.133c0 3.858 3.133 6.996 7.001 6.996h10.558v55.371c0 3.872 3.133 7.001 7.001 7.001h8.713v16.133c0 3.867 3.133 6.996 7.001 6.996h13.503v12.571c-16.528 8.149-27.335 25.213-27.335 43.901 0 13.667 5.641 26.041 14.712 34.919h-178.263c-19.36 0-34.524 20.64-34.524 46.992 0 26.347 15.164 46.997 34.524 46.997z"/></g></svg>