<svg id="Layer_1" enable-background="new 0 0 512 512" viewBox="0 0 512 512" xmlns="http://www.w3.org/2000/svg"><g clip-rule="evenodd" fill-rule="evenodd"><g><path d="m183.052 127.623c12.128 0 22.051-9.923 22.051-22.051v-67.521c0-12.128-9.923-22.051-22.051-22.051s-22.051 9.923-22.051 22.051v67.521c0 12.128 9.923 22.051 22.051 22.051z" fill="#f5b945"/><path d="m276.004 100.408h-115.003v385.592c0 5.508 4.492 10 10 10h170.006c5.508 0 10-4.492 10-10v-310.59c-.001-52.252-22.755-75.002-75.003-75.002z" fill="#fdcd56"/><path d="m161.001 185.41h190.005c13.156 0 23.92 10.764 23.92 23.92s-10.767 23.92-23.92 23.92h-190.005c-13.153 0-23.92-10.764-23.92-23.92s10.764-23.92 23.92-23.92z" fill="#f5b945"/><path d="m199.417 269.465h113.172c5.508 0 10 4.492 10 10v92.818c0 5.508-4.492 10-10 10h-113.172c-5.508 0-10-4.492-10-10v-92.818c0-5.508 4.492-10 10-10z" fill="#7ec5f0"/><circle cx="211.633" cy="437.57" fill="#636c77" r="22.216"/><circle cx="300.374" cy="437.57" fill="#636c77" r="22.216"/><path d="m215.618 290.033h80.77v24.428h-80.77z" fill="#a4d4ff"/><path d="m256.003 361.714c7.757 0 14.084-6.327 14.084-14.084s-6.327-14.083-14.084-14.083-14.084 6.326-14.084 14.083c.001 7.757 6.328 14.084 14.084 14.084z" fill="#f76c82"/></g><path d="m256.005 354.719c-3.91 0-7.085-3.181-7.085-7.09 0-3.9 3.176-7.081 7.085-7.081 3.905 0 7.081 3.181 7.081 7.081-.001 3.91-3.176 7.09-7.081 7.09zm0-28.168c-11.626 0-21.087 9.461-21.087 21.078 0 11.63 9.461 21.092 21.087 21.092 11.625 0 21.082-9.462 21.082-21.092 0-11.616-9.457-21.078-21.082-21.078zm-33.386-29.513h66.771v10.421h-66.771zm-7.001 24.423h80.768c3.867 0 6.996-3.129 6.996-7.001v-24.418c0-3.872-3.129-7.001-6.996-7.001h-80.768c-3.868 0-7.001 3.129-7.001 7.001v24.418c0 3.872 3.134 7.001 7.001 7.001zm84.753 131.331c-8.389 0-15.215-6.831-15.215-15.22 0-8.393 6.827-15.211 15.215-15.211 8.389 0 15.22 6.817 15.22 15.211.001 8.388-6.831 15.22-15.22 15.22zm0-44.433c-16.109 0-29.212 13.103-29.212 29.213 0 16.109 13.103 29.217 29.212 29.217 16.114 0 29.222-13.108 29.222-29.217 0-16.11-13.108-29.213-29.222-29.213zm-88.738 44.433c-8.393 0-15.215-6.831-15.215-15.22 0-8.393 6.822-15.211 15.215-15.211 8.389 0 15.215 6.817 15.215 15.211.001 8.388-6.826 15.22-15.215 15.22zm0-44.433c-16.109 0-29.217 13.103-29.217 29.213 0 16.109 13.108 29.217 29.217 29.217s29.212-13.108 29.212-29.217c.001-16.11-13.102-29.213-29.212-29.213zm103.959-33.08v-98.811h-119.174v98.811zm7-112.808h-133.175c-3.867 0-7.001 3.129-7.001 7.001v112.808c0 3.872 3.133 7.001 7.001 7.001h133.175c3.863 0 7.001-3.129 7.001-7.001v-112.808c0-3.872-3.138-7.001-7.001-7.001zm28.413-36.222h-190.005c-9.33 0-16.919-7.589-16.919-16.919s7.589-16.919 16.919-16.919h190.005c9.33 0 16.918 7.589 16.918 16.919s-7.589 16.919-16.918 16.919zm-183.004 262.751h176.003v-248.75h-176.003zm108.004-381.591c48.3 0 67.999 19.699 67.999 67.999v3.002h-176.003v-71.001zm-108.004-69.358c0-8.299 6.752-15.051 15.051-15.051s15.051 6.752 15.051 15.051v55.357h-30.102zm213.919 171.279c0-14.642-10.228-26.93-23.915-30.111v-3.811c0-55.936-26.051-82.001-82.001-82.001h-63.901v-55.356c0-16.02-13.032-29.052-29.052-29.052s-29.053 13.032-29.053 29.052v141.169c-13.686 3.181-23.919 15.469-23.919 30.111 0 14.637 10.233 26.931 23.919 30.111v256.56c0 3.867 3.138 7.001 7.001 7.001h190.005c3.867 0 7.001-3.133 7.001-7.001v-256.56c13.687-3.181 23.915-15.475 23.915-30.112z"/></g></svg>