<svg viewBox="0 0 512 512" xmlns="http://www.w3.org/2000/svg"><g id="Layer_1" data-name="Layer 1"><path d="m335.955 275.3-31.088-12.878 95.251-229.957c9.315-22.49 40.405-9.613 31.09 12.877z" fill="#df6b57"/><path d="m431.208 45.342-95.253 229.958-11.155-4.62 97.985-237a19.815 19.815 0 0 0 1.494-10.863c6.868 3.719 11.253 12.083 6.929 22.525z" fill="#dd544f"/><path d="m369.7 368.687-154.727-64.087a83.737 83.737 0 0 1 154.727 64.087z" fill="#365e7d"/><path d="m369.7 368.687-15.363-6.364c14.312-37.726 2.93-78.795-25.924-101.247a83.739 83.739 0 0 1 41.287 107.611z" fill="#2b4d66"/><path d="m360.613 390.618-154.724-64.089a11.869 11.869 0 0 1 9.084-21.931l154.727 64.089a11.869 11.869 0 1 1 -9.085 21.931z" fill="#60b8fe"/><path d="m376.027 384.392a11.863 11.863 0 0 1 -15.414 6.226l-154.724-64.089a11.8 11.8 0 0 1 -5.5-17.272 12 12 0 0 0 7.43 11.555l156.623 64.875a12.025 12.025 0 0 0 11.585-1.295z" fill="#23a8fe"/><path d="m142.919 415.006a19.056 19.056 0 0 1 3.355 10.821c0 4.048-1.434 10.287-3.578 13.381-48.611 21.763-88.287 14.047-117.16-27.643a61.2 61.2 0 0 1 -.244-8.455 32.268 32.268 0 0 1 7.384-20.592 28.9 28.9 0 1 1 43.908-32.035 32.4 32.4 0 1 1 59.725 23.77 20.657 20.657 0 1 1 6.61 40.753z" fill="#f5f5f5"/><path d="m498.571 411.565v79.714h-485.142v-79.714h66v18.964a8.679 8.679 0 0 0 8.678 8.679h165.857a8.679 8.679 0 0 0 8.679-8.679v-18.964z" fill="#c3d5ef"/><path d="m498.571 473.279v18h-485.142v-79.714h18v61.714z" fill="#b7c8ea"/><path d="m222.245 465.565h-102.99a7.326 7.326 0 0 1 -7.326-7.326v-19.031h117.642v19.031a7.326 7.326 0 0 1 -7.326 7.326z" fill="#365e7d"/><path d="m204.875 411.565a12.16 12.16 0 1 1 -12.16-12.16 12.16 12.16 0 0 1 12.16 12.16zm10.1-56.065a12.16 12.16 0 1 0 12.16 12.16 12.16 12.16 0 0 0 -12.162-12.16zm-46.775-29.348a12.16 12.16 0 1 0 12.16 12.16 12.16 12.16 0 0 0 -12.16-12.16zm-46.931-50.852a12.16 12.16 0 1 0 12.16 12.16 12.16 12.16 0 0 0 -12.16-12.16zm71.446-47.423a12.847 12.847 0 1 0 12.847 12.847 12.847 12.847 0 0 0 -12.847-12.846z" fill="#f5f5f5"/><path d="m193 308.343a18.869 18.869 0 0 0 10.211 24.657l154.724 64.089a18.863 18.863 0 0 0 20.237-31.089 90.736 90.736 0 0 0 -30.316-101.143l89.819-216.836c6.346-15.321-1.408-27.922-12.347-32.453s-25.328-1.102-31.677 14.218l-89.82 216.848a90.927 90.927 0 0 0 -92.97 50.083 18.888 18.888 0 0 0 -17.861 11.626zm176.655 73.172a4.869 4.869 0 0 1 -6.362 2.635l-154.725-64.088a4.87 4.87 0 0 1 3.727-9l154.724 64.089a4.87 4.87 0 0 1 2.635 6.362zm36.93-346.371c3.181-7.676 9.195-8.375 13.386-6.641s7.949 6.483 4.77 14.16l-88.812 214.408a92.4 92.4 0 0 0 -8.87-4.258 91.327 91.327 0 0 0 -9.282-3.266zm-84.885 230.603a76.725 76.725 0 0 1 43.907 93.67l-141.181-58.48a76.833 76.833 0 0 1 97.274-35.19zm176.87 138.817h-235.927a7 7 0 0 0 -7 7v18.965a1.681 1.681 0 0 1 -1.679 1.679h-101.487a26.128 26.128 0 0 0 0-12.828 27.66 27.66 0 0 0 -6.134-51.882 39.409 39.409 0 0 0 -70.193-32.2 35.887 35.887 0 1 0 -52.811 48.53 39.489 39.489 0 0 0 -5.043 19.282c0 .485.017.971.035 1.455h-4.9a7 7 0 0 0 -7 7v79.715a7 7 0 0 0 7 7h485.14a7 7 0 0 0 7-7v-79.716a7 7 0 0 0 -7-7zm-379.641 41.644h103.642v12.356h-103.642zm-86.638-43.1a25.425 25.425 0 0 1 5.787-16.138 7 7 0 0 0 -1.484-10.253 21.9 21.9 0 1 1 33.267-24.283 7 7 0 0 0 13.5-.214 25.4 25.4 0 1 1 46.824 18.633 7 7 0 0 0 7.488 10.264 13.657 13.657 0 1 1 4.385 26.941 7 7 0 0 0 -4.915 10.908 12.122 12.122 0 0 1 .311 13.241h-49.347a1.68 1.68 0 0 1 -1.678-1.679v-18.964a7 7 0 0 0 -7-7h-47.092c-.028-.484-.046-.964-.046-1.455zm459.28 81.17h-471.142v-65.714h52v11.965a15.7 15.7 0 0 0 15.678 15.679h16.822v19.356a7 7 0 0 0 7 7h117.642a7 7 0 0 0 7-7v-19.356h17.393a15.7 15.7 0 0 0 15.679-15.679v-11.965h221.928zm-318.016-72.714a19.16 19.16 0 1 0 19.16-19.159 19.182 19.182 0 0 0 -19.16 19.159zm24.32 0a5.16 5.16 0 1 1 -5.16-5.159 5.166 5.166 0 0 1 5.16 5.159zm36.259-43.9a19.161 19.161 0 1 0 -19.16 19.16 19.183 19.183 0 0 0 19.16-19.164zm-24.321 0a5.161 5.161 0 1 1 5.161 5.16 5.166 5.166 0 0 1 -5.161-5.164zm-41.613-10.192a19.161 19.161 0 1 0 -19.16-19.16 19.181 19.181 0 0 0 19.16 19.16zm0-24.321a5.161 5.161 0 1 1 -5.16 5.161 5.166 5.166 0 0 1 5.16-5.161zm-46.928-26.53a19.16 19.16 0 1 0 -19.161-19.16 19.183 19.183 0 0 0 19.158 19.16zm0-24.32a5.16 5.16 0 1 1 -5.161 5.16 5.166 5.166 0 0 1 5.158-5.161zm71.446-22.416a19.161 19.161 0 1 0 -19.16-19.16 19.183 19.183 0 0 0 19.157 19.16zm0-24.321a5.161 5.161 0 1 1 -5.16 5.161 5.166 5.166 0 0 1 5.157-5.161z"/></g></svg>