<svg viewBox="0 0 512 512" xmlns="http://www.w3.org/2000/svg"><g id="Layer_1" data-name="Layer 1"><path d="m153.261 75.886a31.458 31.458 0 0 1 -62.916 0c0-17.373 31.458-59.457 31.458-59.457s31.458 42.084 31.458 59.457z" fill="#80eaff"/><path d="m105.25 75.886c0 17.374 16.553 31.458 16.553 31.458a31.458 31.458 0 0 1 -31.458-31.458c0-17.373 31.458-59.457 31.458-59.457s-16.553 42.084-16.553 59.457z" fill="#60b8fe"/><path d="m312.331 118.829 10.813 33.114 33.113 10.812-33.113 10.813-10.813 33.114-10.813-33.114-33.118-10.813 33.113-10.812zm-73.271-66.208-33.114 10.813 33.114 10.813 10.813 33.113 10.812-33.113 33.115-10.813-33.115-10.813-10.812-33.113zm155.467 55.4-33.114 10.813 33.114 10.813 10.812 33.113 10.813-33.113 33.114-10.813-33.114-10.813-10.813-33.121z" fill="#ffdf40"/><path d="m312.331 118.829v87.853l-10.813-33.114-33.118-10.813 33.113-10.812zm-73.271-66.208-33.114 10.813 33.114 10.813 10.813 33.113v-87.852zm155.467 55.4-33.114 10.813 33.114 10.813 10.812 33.113v-87.86z" fill="#ffbe40"/><path d="m159.157 169.794v55.752l-9.486 35.011h-55.8l-9.421-34.233v-56.53zm160.811 66.778a80.008 80.008 0 0 0 -79.918 79.917v73.158c0 37-24.343 50.122-45.19 50.122s-45.19-13.127-45.19-50.122v-101.389h-55.8v101.389c0 40.36 17.15 65.106 31.537 78.757 18.463 17.519 43.13 27.167 69.455 27.167s50.992-9.648 69.455-27.167c14.387-13.651 31.537-38.4 31.537-78.757v-73.158a24.141 24.141 0 0 1 24.115-24.114h19.731v-55.8zm114.921 56.847h-51.76v-56.847h51.76z" fill="#c3d5ef"/><path d="m102.771 226.324 9.419 34.233h-18.321l-9.419-34.233v-56.53h18.321zm216.929 46.052a44.164 44.164 0 0 0 -43.844 44.113v73.158c0 33.258-13.76 53.3-25.3 64.248-14.731 13.979-34.508 21.676-55.69 21.676s-40.958-7.7-55.688-21.675c-11.544-10.953-25.3-30.991-25.3-64.249v-101.389h-20v101.389c0 40.36 17.15 65.106 31.537 78.757 18.463 17.519 43.13 27.167 69.455 27.167s50.992-9.648 69.455-27.167c14.387-13.651 31.537-38.4 31.537-78.757v-73.158a24.141 24.141 0 0 1 24.115-24.114h19.723v-20zm115.192 0v21.043h-51.76v-21.043z" fill="#b7c8ea"/><path d="m159.157 169.794h-74.707a21.716 21.716 0 0 1 0-43.431h74.707a21.716 21.716 0 0 1 0 43.431zm-4.126 90.763h-66.455a13.851 13.851 0 1 0 0 27.7h66.455a13.851 13.851 0 1 0 0-27.7zm228.1-32.684v74.707a21.716 21.716 0 0 1 -43.432 0v-74.707a21.716 21.716 0 0 1 43.432 0zm-67.648 123.249a13.85 13.85 0 0 1 -13.851 13.85h-66.455a13.85 13.85 0 0 1 0-27.7h66.455a13.85 13.85 0 0 1 13.851 13.85z" fill="#365e7d"/><path d="m113.822 288.258h-25.246a13.851 13.851 0 1 1 0-27.7h25.246zm187.81 49.014h-25.779v27.7h25.779a13.85 13.85 0 1 0 0-27.7zm38.065-64.9v30.2a21.716 21.716 0 0 0 43.432 0v-30.2zm-237.018-146.009h-18.229a21.716 21.716 0 1 0 0 43.431h18.229z" fill="#2b4d66"/><path d="m175.115 453.207a7 7 0 0 1 -7 7h-10.84a7 7 0 1 1 0-14h10.84a7 7 0 0 1 7 7zm58.429-7h-10.839a7 7 0 0 0 0 14h10.839a7 7 0 0 0 0-14zm32.715-21.507h-10.84a7 7 0 0 0 0 14h10.84a7 7 0 0 0 0-14zm-130.383 0h-10.839a7 7 0 1 0 0 14h10.839a7 7 0 1 0 0-14zm64.911 41.672h-10.84a7 7 0 1 0 0 14h10.84a7 7 0 0 0 0-14zm-117.442-390.486c0-18.751 27.366-56.309 32.851-63.648a7 7 0 0 1 11.214 0c5.486 7.339 32.851 44.9 32.851 63.648a38.458 38.458 0 0 1 -76.916 0zm14 0a24.458 24.458 0 0 0 48.916 0c0-9.3-13.322-31.48-24.458-47.477-11.136 15.997-24.458 38.172-24.458 47.477zm198.622 70.505 9.71-29.735a7 7 0 0 1 13.308 0l9.71 29.735 29.735 9.71a7 7 0 0 1 0 13.309l-29.73 9.71-9.71 29.734a7 7 0 0 1 -13.308 0l-9.71-29.734-29.735-9.71a7 7 0 0 1 0-13.309zm7.724 12.206-12.736 4.158 12.736 4.159a7 7 0 0 1 4.481 4.482l4.159 12.735 4.158-12.735a7 7 0 0 1 4.482-4.482l12.736-4.159-12.736-4.155a7.006 7.006 0 0 1 -4.482-4.482l-4.158-12.735-4.159 12.735a7 7 0 0 1 -4.481 4.482zm-104.745-95.163a7 7 0 0 1 4.827-6.655l29.735-9.709 9.71-29.736a7 7 0 0 1 13.309 0l9.709 29.736 29.736 9.709a7 7 0 0 1 0 13.309l-29.736 9.712-9.709 29.735a7 7 0 0 1 -13.309 0l-9.71-29.735-29.735-9.71a7 7 0 0 1 -4.827-6.656zm29.551 0 12.735 4.158a7 7 0 0 1 4.482 4.482l4.159 12.735 4.158-12.735a7 7 0 0 1 4.481-4.482l12.736-4.158-12.736-4.159a7 7 0 0 1 -4.481-4.481l-4.158-12.735-4.159 12.735a7 7 0 0 1 -4.482 4.481zm227.769 55.4a7 7 0 0 1 -4.828 6.654l-29.735 9.71-9.709 29.735a7 7 0 0 1 -13.309 0l-9.71-29.735-29.735-9.71a7 7 0 0 1 0-13.308l29.735-9.71 9.71-29.735a7 7 0 0 1 13.309 0l9.709 29.735 29.735 9.71a7 7 0 0 1 4.828 6.649zm-29.551 0-12.736-4.159a7 7 0 0 1 -4.481-4.481l-4.159-12.735-4.158 12.735a7 7 0 0 1 -4.482 4.481l-12.736 4.159 12.736 4.159a7 7 0 0 1 4.482 4.481l4.158 12.736 4.159-12.736a7 7 0 0 1 4.481-4.481zm15.174 125.008v42.317a14.281 14.281 0 0 1 -14.265 14.265h-37.5v2.161a28.716 28.716 0 0 1 -57.431 0v-3.2h-12.725a17.133 17.133 0 0 0 -17.115 17.114v13.845a20.822 20.822 0 0 1 0 41.576v17.736c0 42.848-18.336 69.24-33.719 83.835-19.769 18.759-46.147 29.09-74.273 29.09s-54.5-10.331-74.274-29.09c-15.382-14.595-33.718-40.987-33.718-83.835v-94.485a20.832 20.832 0 0 1 -2.086-41.251l-7.083-25.739a7.016 7.016 0 0 1 -.251-1.857v-50.4a28.716 28.716 0 0 1 7-56.565h74.707a28.716 28.716 0 0 1 7 56.565v49.617a6.988 6.988 0 0 1 -.244 1.831l-7.187 26.529a20.83 20.83 0 0 1 -2.055 41.27v94.471c0 31.795 19.727 43.123 38.19 43.123s38.19-11.328 38.19-43.123v-17.778a20.851 20.851 0 0 1 0-41.484v-13.891a87.017 87.017 0 0 1 86.918-86.917h12.732v-1.7a28.716 28.716 0 1 1 57.431 0v1.7h37.5a14.282 14.282 0 0 1 14.258 14.265zm-297.574 9.72 7.842-28.943v-47.82h-60.707v48.585l7.75 28.173zm-59.865-90.768h74.707a14.716 14.716 0 0 0 0-29.431h-74.707a14.716 14.716 0 1 0 0 29.431zm4.126 118.464h66.455a6.851 6.851 0 0 0 0-13.7h-66.455a6.851 6.851 0 1 0 0 13.7zm200.277 108.388v-17.674h-41.8v17.674c0 39.46-26.213 57.123-52.19 57.123s-52.19-17.663-52.19-57.123v-94.388h-41.8v94.388c0 37.875 15.963 60.973 29.355 73.68 17.157 16.279 40.112 25.245 64.637 25.245s47.48-8.966 64.637-25.245c13.388-12.707 29.351-35.805 29.351-73.68zm12.779-45.374h-66.455a6.85 6.85 0 0 0 0 13.7h66.455a6.85 6.85 0 1 0 0-13.7zm31.065-58.9v-41.8h-12.729a73 73 0 0 0 -72.918 72.917v13.783h41.8v-13.783a31.15 31.15 0 0 1 31.115-31.114zm43.431-57.5a14.716 14.716 0 1 0 -29.431 0v74.708a14.716 14.716 0 0 0 29.431 0zm51.761 15.963a.265.265 0 0 0 -.265-.265h-37.5v42.847h37.5a.265.265 0 0 0 .265-.265z"/></g></svg>