<svg viewBox="0 0 512 512" xmlns="http://www.w3.org/2000/svg"><g id="Layer_1" data-name="Layer 1"><path d="m149.041 112.715-77 31.893c-.027-.065-.057-.125-.083-.191l-16.614-40.117c-2.4-5.778-1.836-14.317 1.238-18.974l24.4-36.786c3.074-4.658 7.068-4.9 8.874-.546.259.626 17.331 41.848 20.77 50.15 3.752 9.045 15.914 23.891 38.415 14.571z" fill="#c3d5ef"/><path d="m88.055 137.976-16.012 6.632c-.027-.065-.057-.125-.083-.191l-16.616-40.117c-2.4-5.778-1.836-14.317 1.238-18.974l24.4-36.786c1.8-2.731 3.919-3.933 5.727-3.591-.493.784-11.754 35.725-15.438 47.175a10.139 10.139 0 0 0 .32 7.067z" fill="#b7c8ea"/><path d="m195.053 27.965-43.268-8.755c-5.466-1.121-8.464 1.529-6.659 5.888s16.064 37.874 21.24 51.284c3.624 9.388 1.793 28.414-17.325 36.333l-77 31.893c22.7 54.812 77.977 48.251 77.977 48.251s90.934 270.341 93.131 275.641a49.96 49.96 0 0 0 92.314-38.238c-2.2-5.3-129.454-261.611-129.454-261.611s42.259-34.178 19.954-88.029c-4.969-11.993-16.617-40.119-16.617-40.119-2.393-5.776-8.826-11.417-14.293-12.538zm116.08 412.1a23.731 23.731 0 1 1 -31.006-12.843 23.731 23.731 0 0 1 31.006 12.844z" fill="#f5f5f5"/><path d="m308.425 495.542a49.96 49.96 0 0 1 -65.276-27.042c-2.2-5.3-93.129-275.645-93.129-275.645s-55.278 6.561-77.977-48.251l16.012-6.632.023.056c14.177 25.95 36.754 36.621 65.284 36.465a7.832 7.832 0 0 1 7.555 5.43l98.847 281.364c7.303 18.72 24.936 33.113 48.661 34.255z" fill="#e6e6e6"/><path d="m455.936 84.852-93.375 225.427-40.294 97.275-40.394-16.731 33.363-80.544 86.363-208.5-90.523-37.5 13.942-33.662a29.237 29.237 0 0 1 38.082-15.768l77.06 31.919a29.234 29.234 0 0 1 15.776 38.084z" fill="#bfbfbf"/><path d="m293.27 395.544-11.4-4.721 33.363-80.544 86.363-208.5-90.523-37.5 5.1-12.3 94.888 39.731a8.358 8.358 0 0 1 4.494 10.907l-83.177 200.805z" fill="#8c8c8c"/><path d="m245 387.467a11.014 11.014 0 0 1 -14.388 5.959l-51.689-21.41a11.012 11.012 0 0 1 8.428-20.348l51.688 21.41a11.013 11.013 0 0 1 5.961 14.389zm103.229-278-37.516-15.535a11.014 11.014 0 0 0 -14.388 5.96l-4.213 10.173 57.859 23.968 4.214-10.174a11.012 11.012 0 0 0 -5.96-14.389z" fill="#365e7d"/><path d="m192.427 377.611-13.508-5.595a11.012 11.012 0 0 1 8.428-20.348l17.919 7.422-12.885 18.468zm111.082-262.825 4.975-11.836c1.661-4.072 7.018-6.536 11.458-5.2l-9.229-3.823a11.014 11.014 0 0 0 -14.388 5.96l-4.213 10.173 11.4 4.721z" fill="#2b4d66"/><path d="m409.229 242.358a11.011 11.011 0 0 1 -14.387 5.959l-51.689-21.41a11.011 11.011 0 1 1 8.428-20.346l51.689 21.41a11.011 11.011 0 0 1 5.959 14.387z" fill="#365e7d"/><path d="m432.253 183.888-6.94 16.757a14.615 14.615 0 0 1 -19.042 7.886l-75.105-31.108a14.616 14.616 0 0 0 -19.042 7.887l-11.524 27.827a14.615 14.615 0 0 0 7.887 19.041l75.1 31.112a14.615 14.615 0 0 1 7.888 19.041l-6.941 16.756c-3.067 7.405-12.08 12.609-20.026 11.564l-82.555-15.723c-7.947-1.045-16.959 4.159-20.027 11.564l-26.892 64.928-23.176-9.6-20.509-8.5 100.763-243.26 132.254 54.782a14.616 14.616 0 0 1 7.887 19.046zm-253.185 188.157-37.317 90.09a14.616 14.616 0 0 0 7.888 19.042l24.485 10.142a14.614 14.614 0 0 0 19.042-7.888l37.317-90.09z" fill="#df6b57"/><path d="m383.59 263.29a14.4 14.4 0 0 1 1.829.932l-63.649-26.365a14.529 14.529 0 0 1 -1.828-.933zm-85.271-132.865a2.811 2.811 0 0 1 3.681-1.537l129.642 53.7c.317.131.618.286.921.438a14.609 14.609 0 0 0 -8.195-18.178l-132.256-54.783-100.763 243.26 13.917 5.766zm-143.282 337.389 37.344-90.255-13.313-5.514-37.317 90.09a14.616 14.616 0 0 0 7.888 19.042l11.457 4.746a14.615 14.615 0 0 1 -6.059-18.109z" fill="#dd544f"/><path d="m361.009 234.3-17.856-7.4a11.011 11.011 0 1 1 8.428-20.346l17.855 7.4z" fill="#2b4d66"/><path d="m442.84 40.3-77.061-31.919a36.189 36.189 0 0 0 -47.228 19.563l-13.944 33.663a7 7 0 0 0 3.789 9.146l84.056 34.818-13.6 32.845-19.73-8.172 1.535-3.707a18.034 18.034 0 0 0 -9.757-23.537l-37.508-15.535a18.031 18.031 0 0 0 -23.534 9.749l-4.213 10.173-46.212 111.563c-10.92-22.087-19.49-39.412-23.4-47.311a91.34 91.34 0 0 0 16.171-22.434c7.831-15.381 14.51-40.128 1.857-70.673l-16.773-40.5c-3.313-8-11.691-15.24-19.508-16.844l-43.661-8.834c-5.571-1.143-10.414.2-13.287 3.679-2.623 3.177-3.1 7.478-1.309 11.8.387.934 1.336 3.187 2.644 6.287 4.755 11.278 14.65 34.745 18.734 45.329 2.3 5.952 2.055 21.188-13.637 27.689-20.4 8.448-28.26-7.619-29.63-10.925l-20.966-50.627c-1.791-4.322-5.169-7.026-9.27-7.418-4.481-.436-8.866 2.047-11.987 6.779l-24.644 37.153c-4.386 6.643-5.193 17.687-1.876 25.688l16.9 40.8c12.88 31.007 35.536 43.764 52.285 49a92.76 92.76 0 0 0 27.885 4.168c5.74 17.287 25.357 76.357 44.787 134.731l-3.271 7.9a17.97 17.97 0 0 0 -20.985 10.569 18.034 18.034 0 0 0 3.939 19.653l-35.148 84.854a21.6 21.6 0 0 0 11.677 28.188l24.483 10.141a21.616 21.616 0 0 0 28.189-11.676l22.72-54.852c12.612 37.69 13.147 38.979 13.418 39.632a57.434 57.434 0 1 0 106.123-43.959c-.216-.521-.619-1.492-10.829-22.3l35.986-86.877c10.038-.2 20.114-6.726 23.953-15.993l6.94-16.754a21.588 21.588 0 0 0 -6.831-25.375l1.888-4.554a17.989 17.989 0 0 0 13.752-33.2l2.257-5.449a21.586 21.586 0 0 0 22.773-13.111l6.939-16.755a21.587 21.587 0 0 0 -6.831-25.374l30.51-73.664a36.191 36.191 0 0 0 -19.56-47.231zm-134.806 60.1 37.513 15.539a4.018 4.018 0 0 1 2.172 5.242l-1.535 3.706-44.927-18.609 1.536-3.706a4.012 4.012 0 0 1 5.241-2.172zm-245.593-10.578 23.022-34.7 19.237 46.449a36.467 36.467 0 0 0 14.511 17.186l-43.211 17.898-14.176-34.229c-1.645-3.971-1.003-10.15.617-12.604zm95.135 102.478a7.02 7.02 0 0 0 -7.449-4.748c-1.976.224-46.613 4.725-68.51-38.073l71.006-29.411c22.921-9.494 26.284-32.863 21.341-45.665-4.161-10.783-14.112-34.384-18.9-45.726-.3-.723-.59-1.4-.853-2.023l40.77 8.249c2.9.6 7.725 4.511 9.368 8.482l16.776 40.5c20.167 48.69-16.524 79.469-18.08 80.743a7 7 0 0 0 -1.872 8.547s13.207 26.694 31.135 62.959l-33.382 80.593c-21.305-64.042-41.35-124.422-41.35-124.427zm21.852 168a4 4 0 0 1 5.24-2.172l51.688 21.409a4.012 4.012 0 1 1 -3.07 7.414l-51.686-21.402a4.015 4.015 0 0 1 -2.172-5.241zm7.272 120.452a7.616 7.616 0 0 1 -9.9 4.1l-24.482-10.142a7.583 7.583 0 0 1 -4.1-9.9l34.626-83.6 38.481 15.939zm118.755 8.287a43.471 43.471 0 0 1 -56.727-23.452c-.391-1-3.273-9.351-18.18-53.976l-.065.021 4.295-10.369h.019a18 18 0 0 0 9.3-33.428l24.3-58.664v-.005c7.395 14.972 14.723 29.818 21.605 43.771l-14.594 35.233a7 7 0 0 0 3.788 9.146l40.394 16.731c.2.083.4.153.605.216 7.054 14.386 8.545 17.523 8.765 18.026a43.484 43.484 0 0 1 -23.506 56.75zm-14.434-101.978 31.973-77.191 29.819 5.679-34.334 82.885zm6.106-51.325c-5.436-11.014-11.075-22.437-16.744-33.917.164.009.33.011.491.029l28.075 5.347zm69.248-130.625 1.954-4.718 27.46 11.373-1.956 4.72zm-12.952-5.311a17.988 17.988 0 0 0 -13.751 33.2l-1.6 3.864-26.909-11.147a7.618 7.618 0 0 1 -4.1-9.9l11.527-27.826a7.616 7.616 0 0 1 9.9-4.1l26.91 11.144zm-.834 38.6 27.46 11.374-1.584 3.823-27.459-11.375zm50.172 1.288a4.01 4.01 0 0 1 -5.24 2.169l-51.69-21.41a4.012 4.012 0 1 1 3.071-7.412l51.689 21.41a4.011 4.011 0 0 1 2.17 5.243zm23.024-58.471-6.938 16.756a7.619 7.619 0 0 1 -9.9 4.1l-75.1-31.108a21.616 21.616 0 0 0 -28.188 11.675l-11.526 27.827a21.615 21.615 0 0 0 11.675 28.188l75.106 31.111a7.617 7.617 0 0 1 4.1 9.895l-6.941 16.756c-1.822 4.4-7.728 7.849-12.477 7.323l-82.327-15.679c-.132-.025-.264-.047-.4-.064-11.075-1.456-23.126 5.493-27.406 15.825l-24.216 58.462-30.747-12.746 95.4-230.327 125.789 52.1a7.613 7.613 0 0 1 4.1 9.9zm23.684-99.037-30.228 72.974-27.46-11.374 16.283-39.312a7 7 0 0 0 -3.788-9.146l-84.056-34.822 11.264-27.2a22.177 22.177 0 0 1 28.938-11.986l77.06 31.919a22.174 22.174 0 0 1 11.987 28.94zm-132.136 354.644a30.995 30.995 0 1 0 -16.753 40.447 30.992 30.992 0 0 0 16.753-40.447zm-22.111 27.512a16.956 16.956 0 1 1 9.176-22.154 16.837 16.837 0 0 1 -9.176 22.154z"/></g></svg>