<svg id="Layer_1" enable-background="new 0 0 512 512" viewBox="0 0 512 512" xmlns="http://www.w3.org/2000/svg"><g clip-rule="evenodd" fill-rule="evenodd"><g><g><path d="m320.383 388.141h165.617c5.508 0 10-4.492 10-10v-70.446c0-4.119-2.342-7.637-6.142-9.226l-40.841-17.077-38.527-83.831c-1.669-3.632-5.089-5.824-9.086-5.824h-81.021z" fill="#f76c82"/><path d="m26 80.261h294.384c5.508 0 10 4.492 10 10v297.88h-304.384c-5.508 0-10-4.492-10-10v-287.88c0-5.508 4.492-10 10-10z" fill="#e4e8eb"/><ellipse cx="104.081" cy="388.141" fill="#636c77" rx="43.597" ry="43.597" transform="matrix(.707 -.707 .707 .707 -243.973 187.281)"/><circle cx="104.081" cy="388.141" fill="#e4e8eb" r="17.103"/><ellipse cx="407.918" cy="388.141" fill="#636c77" rx="43.597" ry="43.597" transform="matrix(.707 -.707 .707 .707 -154.981 402.126)"/><ellipse cx="407.918" cy="388.141" fill="#e4e8eb" rx="17.103" ry="17.103" transform="matrix(.707 -.707 .707 .707 -154.981 402.126)"/><path d="m361.599 191.738v89.656h87.417l-38.527-83.831c-1.669-3.632-5.089-5.824-9.086-5.824h-39.804z" fill="#a4d4ff"/></g><g><path d="m221.278 200.003v-28.135c0-5.508-4.492-10-10-10h-24.305c-5.508 0-10 4.492-10 10v11.002z" fill="#a9b0bb"/><path d="m148.972 122.199h60.64c6.426 0 11.667 5.242 11.667 11.667v4.335c0 2.754-2.246 5-5 5h-50.972c-3.866 0-7 3.134-7 7v72.7l7.749 7.174-7.749 11.251v10.103c0 5.774-4.725 10.5-10.501 10.5-5.775 0-10.501-4.725-10.501-10.5v-117.563c0-6.426 5.241-11.667 11.667-11.667z" fill="#a9b0bb"/><path d="m221.278 182.869v144.485c0 10.367-8.482 18.849-18.849 18.849s-18.849-8.482-18.849-18.849v-76.046l-25.274-9.511v-30.564h-26.04v-23.365c0-2.754 2.246-5 5-5 30.172.001 52.995.001 84.012.001z" fill="#f76c82"/><path d="m130.105 226.834h36.33c2.754 0 5-2.246 5-5v-11.002c0-2.754-2.246-5-5-5h-36.33c-2.754 0-5 2.246-5 5v11.002c0 2.754 2.246 5 5 5z" fill="#636c77"/></g></g><path d="m214.315 136.21h-48.977c-7.716 0-14.02 6.281-14.02 14.002v25.66h-7.01v-42c0-2.569 2.117-4.663 4.705-4.663h60.598c2.588 0 4.705 2.094 4.705 4.663v2.338zm0 53.659v137.48c0 6.54-5.316 11.852-11.856 11.852s-11.856-5.312-11.856-11.852v-76.039c0-2.917-1.835-5.519-4.564-6.549l-20.701-7.81v-3.11h6.116c3.858 0 7.01-3.138 7.01-7.001v-20.998c0-3.872-3.152-7.001-7.01-7.001h-32.181v-8.972zm-30.346-20.998v7.001h30.346v-7.001zm-36.133 86.061c1.882 0 3.482-1.6 3.482-3.501v-17.591h-7.01v17.591c-.001 1.901 1.599 3.501 3.528 3.501zm16.608-35.093v-7.001h-32.322v7.001zm45.166-104.627h-60.598c-10.304 0-18.678 8.37-18.678 18.659v42.287c-2.917.852-5.034 3.533-5.034 6.714v15.968h-.188c-3.858 0-6.963 3.129-6.963 7.001v20.998c0 3.863 3.105 7.001 6.963 7.001h5.222v17.591c0 9.65 7.857 17.497 17.502 17.497 9.504 0 17.22-7.598 17.455-17.032l11.292 4.253v71.198c0 14.26 11.621 25.853 25.877 25.853s25.83-11.593 25.83-25.853v-165.477c0-3.858-3.152-7.001-7.01-7.001h-44.272c-3.858 0-7.01 3.143-7.01 7.001v14.002h-4.658v-25.66h55.94c3.858 0 7.01-3.143 7.01-7.001v-9.339c-.001-10.29-8.376-18.66-18.68-18.66zm198.309 283.039c-5.552 0-10.068-4.54-10.068-10.111 0-5.57 4.517-10.101 10.068-10.101 5.599 0 10.115 4.531 10.115 10.101.001 5.571-4.516 10.111-10.115 10.111zm0-34.209c-13.268 0-24.089 10.807-24.089 24.098s10.821 24.108 24.089 24.108c13.315 0 24.136-10.817 24.136-24.108s-10.821-24.098-24.136-24.098zm-303.838 34.209c-5.552 0-10.068-4.54-10.068-10.111 0-5.57 4.517-10.101 10.068-10.101 5.599 0 10.116 4.531 10.116 10.101-.001 5.571-4.517 10.111-10.116 10.111zm0-34.209c-13.268 0-24.089 10.807-24.089 24.098s10.821 24.108 24.089 24.108c13.315 0 24.136-10.817 24.136-24.108-.001-13.291-10.822-24.098-24.136-24.098zm384.95 17.097v-66.78c0-5.42-3.011-9.908-7.998-11.997l-33.405-13.959h-76.03c-9.363 0-16.985-7.631-16.985-17.003v-72.657h-17.22v182.397h20.466c3.387-24.587 24.559-43.59 50.059-43.59 25.547 0 46.719 19.003 50.107 43.59h31.006zm-81.112 43.6c20.184 0 36.604-16.42 36.604-36.599s-16.42-36.589-36.604-36.589-36.604 16.41-36.604 36.589c.001 20.179 16.421 36.599 36.604 36.599zm-1.082-218.427 31.287 68.088h-66.526c-1.647 0-2.964-1.35-2.964-3.002v-72.657h26.394c5.269.001 9.598 2.758 11.809 7.571zm-83.417 174.827v-280.879c0-7.161-5.834-13-13.032-13h-274.386c-7.152 0-12.986 5.839-12.986 13v267.88c0 7.17 5.834 12.999 12.986 12.999h17.972c3.434-24.587 24.606-43.59 50.106-43.59 25.548 0 46.719 19.003 50.107 43.59zm-219.339 43.6c-20.184 0-36.604-16.42-36.604-36.599s16.42-36.589 36.604-36.589 36.604 16.41 36.604 36.589c-.001 20.179-16.421 36.599-36.604 36.599zm382.362-135.287-32.181-13.461-34.722-75.532c-4.47-9.692-13.832-15.719-24.512-15.719h-57.634v-84.48c0-14.882-12.091-27.001-27.006-27.001h-274.386c-14.867 0-27.006 12.119-27.006 27.001v267.88c0 14.891 12.139 27.001 27.006 27.001h17.972c3.434 24.602 24.606 43.6 50.106 43.6 25.548 0 46.719-18.998 50.107-43.6h203.673c3.387 24.602 24.559 43.6 50.059 43.6 25.547 0 46.719-18.998 50.107-43.6h38.015c3.858 0 6.963-3.133 6.963-7.001v-73.781c0-11.089-6.351-20.64-16.561-24.907z"/></g></svg>