<svg id="Layer_1" enable-background="new 0 0 512 512" viewBox="0 0 512 512" xmlns="http://www.w3.org/2000/svg"><g><g><g clip-rule="evenodd" fill-rule="evenodd"><path d="m239.8 366.284-96.175-46.507c-2.363-1.143-5.194-.272-6.506 2.001l-61.693 106.854c-1.005 1.741-.903 3.785.271 5.418 1.173 1.633 3.078 2.38 5.049 1.983l60.982-12.309c2.484-.501 4.92.905 5.728 3.307l19.831 58.967c.641 1.905 2.241 3.181 4.242 3.381 2 .2 3.822-.734 4.827-2.475l65.598-113.619c.721-1.248.872-2.593.449-3.97-.425-1.376-1.306-2.403-2.603-3.031zm32.401.001 96.175-46.508c2.363-1.143 5.194-.272 6.507 2.001l61.692 106.853c1.005 1.741.903 3.785-.27 5.418-1.174 1.633-3.079 2.38-5.05 1.983l-60.982-12.309c-2.484-.501-4.92.905-5.728 3.307l-19.831 58.967c-.641 1.905-2.241 3.181-4.242 3.381-2 .2-3.822-.734-4.827-2.475l-65.598-113.618c-.721-1.248-.872-2.592-.449-3.97.424-1.376 1.305-2.403 2.603-3.03z" fill="#f76c82"/><ellipse cx="256" cy="204.441" fill="#fdcd56" rx="187.944" ry="187.944" transform="matrix(.707 -.707 .707 .707 -69.581 240.899)"/><circle cx="256" cy="204.441" fill="#f4f6f8" r="139.155"/></g><g><g clip-rule="evenodd" fill-rule="evenodd"><path d="m207.049 191.774v-29.126c0-5.702-4.65-10.352-10.352-10.352h-25.161c-5.702 0-10.352 4.65-10.352 10.352v11.389z" fill="#a9b0bb"/><path d="m132.196 111.23h62.775c6.652 0 12.078 5.426 12.078 12.077v4.488c0 2.851-2.325 5.176-5.176 5.176h-52.768c-4.002 0-7.246 3.245-7.246 7.247v75.26l8.021 7.427-8.021 11.647v10.459c0 5.977-4.892 10.87-10.871 10.87s-10.87-4.891-10.87-10.87v-121.703c0-6.652 5.426-12.078 12.078-12.078z" fill="#a9b0bb"/><path d="m207.049 174.037v149.573c0 10.732-8.781 19.513-19.513 19.513s-19.513-8.78-19.513-19.513v-78.723l-26.164-9.846v-31.641h-26.957v-24.188c0-2.851 2.326-5.176 5.176-5.176 31.234.001 54.861.001 86.971.001z" fill="#f76c82"/><path d="m112.665 219.549h37.609c2.851 0 5.176-2.325 5.176-5.176v-11.389c0-2.851-2.325-5.176-5.176-5.176h-37.609c-2.851 0-5.176 2.325-5.176 5.176v11.389c0 2.851 2.325 5.176 5.176 5.176z" fill="#636c77"/></g></g><g clip-rule="evenodd" fill-rule="evenodd"><path d="m314.416 140.154h21.049v52.767h-21.049z" fill="#cad0d7"/><path d="m347.412 223.076h-44.944v-29.375c0-2.754 2.246-5 5-5h34.944c2.754 0 5 2.246 5 5z" fill="#a9b0bb"/><path d="m252.645 241.798h94.767c5.742 0 10.963 2.35 14.753 6.139 3.789 3.79 6.139 9.011 6.139 14.753v8.679c0 2.754 2.246 5 5 5h23.427c2.754 0 5-2.246 5-5v-8.679c0-14.969-6.097-28.552-15.932-38.386-9.835-9.835-23.417-15.932-38.386-15.932h-94.767v33.426z" fill="#cad0d7"/><path d="m243.588 187.269h17.23l17.236 9.648c1.622.908 2.558 2.504 2.558 4.363v47.608c0 1.859-.935 3.455-2.558 4.363l-17.236 9.649h-17.23c-2.754 0-5-2.246-5-5v-65.632c.001-2.753 2.247-4.999 5-4.999z" fill="#cad0d7"/><g fill="#a9b0bb"><path d="m260.818 187.269 19.794 11.08v53.471l-19.794 11.08z"/><path d="m367.627 257.424c.442 1.684.677 3.449.677 5.266v8.679c0 2.754 2.246 5 5 5h1.844 21.583c2.754 0 5-2.246 5-5v-8.679c0-1.776-.086-3.533-.253-5.266h-16.764z"/><path d="m260.818 187.269 17.236 9.648c1.622.908 2.558 2.504 2.558 4.363v47.608c0 1.859-.935 3.455-2.558 4.363l-17.236 9.649z"/><path d="m324.94 163.244c8.463 0 15.366-6.902 15.366-15.365s-6.902-15.366-15.366-15.366-15.366 6.902-15.366 15.366c.001 8.463 6.903 15.365 15.366 15.365z"/></g></g></g><path clip-rule="evenodd" d="m181.32 322.447c0-3.435 2.781-6.215 6.22-6.215 3.43 0 6.21 2.781 6.21 6.215 0 3.43-2.781 6.21-6.21 6.21-3.439 0-6.22-2.781-6.22-6.21zm18.73-196.973h-50.939c-7.857 0-14.251 6.394-14.251 14.246v26.817h-7.74v-43.727c0-2.799 2.282-5.076 5.081-5.076h62.772c2.795 0 5.077 2.277 5.077 5.076zm0 55.065h-78.147v9.772h33.55c3.867 0 6.996 3.133 6.996 7.001v21.741c0 3.867-3.129 7.001-6.996 7.001h-6.591v3.646l21.628 8.139c2.729 1.026 4.531 3.632 4.531 6.549v78.722c0 6.902 5.622 12.515 12.52 12.515 6.902 0 12.51-5.613 12.51-12.515v-142.571zm-31.871-21.741v7.739h31.871v-7.739zm-37.187 89.589c-2.103 0-3.872-1.774-3.872-3.872v-18.462h7.74v18.462c0 2.099-1.769 3.872-3.868 3.872zm17.46-36.335h-33.96v-7.74h33.96zm46.521-108.319h-62.772c-10.52 0-19.078 8.558-19.078 19.078v43.967c-3.002.79-5.222 3.514-5.222 6.761v16.773h-.409c-3.872 0-7.001 3.133-7.001 7.001v21.741c0 3.867 3.129 7.001 7.001 7.001h5.632v18.462c0 9.852 8.008 17.869 17.869 17.869 9.81 0 17.789-7.942 17.859-17.728l12.171 4.578v73.875c0 14.623 11.899 26.512 26.517 26.512 14.623 0 26.512-11.889 26.512-26.512v-171.314c0-3.863-3.129-7.001-7.001-7.001h-45.867c-3.863 0-7.001 3.138-7.001 7.001v14.74h-5.321v-26.817c0-.136.108-.245.249-.245h57.94c3.872 0 7.001-3.133 7.001-7.001v-9.664c-.001-10.519-8.563-19.077-19.079-19.077zm180.328 165.139v-4.945h19.431v4.945zm-27.891-34.571h-59.799v-19.426h59.799c21.849 0 40.283 14.891 45.703 35.051h-20.663c-4.541-9.245-14.059-15.625-25.04-15.625zm-73.8 12.92-5.787 3.242v-51.749l5.787 3.242zm-28.017-53.447h8.229v61.629h-8.229zm63.877 1.43h30.939v5.669h-30.939zm11.951-25.735c1.139.179 2.32.277 3.519.277 1.2 0 2.381-.099 3.519-.277v11.739h-7.039v-11.739zm3.519-30.455c4.611 0 8.37 3.755 8.37 8.37 0 4.611-3.759 8.365-8.37 8.365s-8.37-3.754-8.37-8.365c0-4.615 3.759-8.37 8.37-8.37zm83.793 136.859v-13.682c0-31.442-23.792-57.418-54.322-60.904v-13.084c0-3.863-3.129-6.996-7.001-6.996h-4.949v-19.953c1.623-2.032 2.889-4.352 3.721-6.874h27.778c3.872 0 7.001-3.133 7.001-6.996 0-3.867-3.129-7.001-7.001-7.001h-27.778c-2.95-8.916-11.353-15.366-21.242-15.366s-18.288 6.451-21.238 15.366h-27.782c-3.867 0-6.996 3.133-6.996 7.001 0 3.863 3.129 6.996 6.996 6.996h27.782c.838 2.522 2.099 4.841 3.717 6.874v19.953h-4.949c-3.868 0-7.001 3.133-7.001 6.996v12.67h-7.857v-3.021c0-2.536-1.369-4.869-3.58-6.107l-19.789-11.08c-1.049-.588-2.221-.894-3.421-.894h-22.23c-3.872 0-7.001 3.133-7.001 7.001v75.63c0 3.867 3.129 7.001 7.001 7.001h22.23c1.2 0 2.372-.31 3.421-.894l19.789-11.08c2.211-1.237 3.58-3.576 3.58-6.107v-3.02h59.799c7.66 0 13.889 6.229 13.889 13.889v13.682c0 3.863 3.143 7.001 7.001 7.001h33.432c3.867 0 7-3.138 7-7.001zm-41.393 139.621c-3.468-.696-6.902 1.284-8.017 4.63l-19.831 58.947-48.149-83.403c35.009-6.436 66.771-22.25 92.577-44.738l44.381 76.868zm-292.279-211.548c0 99.771 81.173 180.943 180.939 180.943 99.771 0 180.943-81.172 180.943-180.943 0-99.776-81.173-180.948-180.943-180.948-99.766-.001-180.939 81.172-180.939 180.948zm97.452 275.125-19.831-58.947c-1.12-3.345-4.559-5.331-8.008-4.63l-60.975 12.303 44.381-76.868c25.811 22.489 57.573 38.302 92.582 44.738zm221.889-137.979c34.929-35.249 56.538-83.718 56.538-137.146 0-107.492-87.449-194.945-194.94-194.945-107.487 0-194.94 87.454-194.94 194.945 0 53.428 21.609 101.898 56.543 137.146l-53.771 93.137c-1.378 2.38-1.228 5.349.372 7.584 1.609 2.235 4.371 3.322 7.067 2.776l70.111-14.152 22.8 67.792c.88 2.611 3.199 4.46 5.942 4.738.231.023.471.033.696.033 2.484 0 4.804-1.317 6.064-3.5l58.698-101.676c6.709.701 13.531 1.068 20.419 1.068s13.71-.367 20.419-1.068l58.702 101.676c1.261 2.183 3.581 3.5 6.06 3.5.23 0 .471-.009.701-.033 2.738-.278 5.057-2.127 5.937-4.738l22.804-67.792 70.107 14.152c2.691.546 5.462-.541 7.071-2.776 1.6-2.235 1.75-5.204.367-7.584z" fill-rule="evenodd"/></g></svg>