<svg id="Layer_1" enable-background="new 0 0 512 512" viewBox="0 0 512 512" xmlns="http://www.w3.org/2000/svg"><g><g><g clip-rule="evenodd" fill-rule="evenodd"><path d="m54.085 16.996h266.781l71.767 71.767v359.599c0 5.508-4.492 10-10 10h-328.548c-5.508 0-10-4.492-10-10v-421.366c0-5.508 4.492-10 10-10z" fill="#f4f6f8"/><path d="m320.866 78.763c0 5.508 4.492 10 10 10h61.767l-71.767-71.767z" fill="#e4e8eb"/></g><g clip-rule="evenodd" fill-rule="evenodd"><path d="m384.197 443.764-35.032-16.941c-1.891-.914-4.155-.218-5.205 1.601l-21.646 37.492c-.804 1.393-.723 3.029.216 4.335s2.463 1.905 4.039 1.587l18.446-3.723c1.987-.401 3.936.724 4.582 2.646l5.999 17.836c.513 1.525 1.793 2.545 3.394 2.705 1.6.16 3.057-.587 3.862-1.98l23.069-39.956c.577-.998.698-2.074.359-3.176-.34-1.103-1.046-1.924-2.083-2.426zm16.872 0 35.032-16.941c1.891-.914 4.155-.218 5.205 1.601l21.646 37.492c.804 1.393.723 3.029-.216 4.335-.938 1.306-2.463 1.905-4.039 1.587l-18.446-3.723c-1.987-.401-3.936.724-4.582 2.646l-5.999 17.836c-.513 1.525-1.793 2.545-3.394 2.705-1.6.16-3.057-.587-3.862-1.98l-23.069-39.957c-.577-.998-.698-2.074-.359-3.176.34-1.102 1.045-1.923 2.083-2.425z" fill="#f76c82"/><circle cx="392.633" cy="379.694" fill="#fdcd56" r="75.487"/><ellipse cx="392.633" cy="379.694" fill="#f4f6f8" rx="49.686" ry="49.686" transform="matrix(.707 -.707 .707 .707 -153.485 388.843)"/></g><g><g clip-rule="evenodd" fill-rule="evenodd"><path d="m217.829 187.299v-41.448c0-8.114-6.617-14.731-14.731-14.731h-35.806c-8.114 0-14.731 6.618-14.731 14.731v16.207z" fill="#a9b0bb"/><path d="m111.308 72.68h89.333c9.467 0 17.187 7.722 17.187 17.187v6.386c0 4.057-3.309 7.366-7.365 7.366h-75.091c-5.696 0-10.312 4.617-10.312 10.312v107.1l11.415 10.569-11.415 16.575v14.884c0 8.507-6.961 15.469-15.469 15.469s-15.469-6.961-15.469-15.469v-173.191c-.001-9.467 7.72-17.188 17.186-17.188z" fill="#a9b0bb"/><path d="m217.829 162.058v212.851c0 15.272-12.496 27.768-27.768 27.768s-27.768-12.495-27.768-27.768v-112.029l-37.233-14.011v-45.025h-38.361v-34.421c0-4.057 3.309-7.366 7.366-7.366 44.447.001 78.069.001 123.764.001z" fill="#f76c82"/><path d="m83.514 226.825h53.52c4.057 0 7.366-3.309 7.366-7.366v-16.208c0-4.057-3.308-7.366-7.366-7.366h-53.52c-4.057 0-7.366 3.309-7.366 7.366v16.208c.001 4.057 3.309 7.366 7.366 7.366z" fill="#636c77"/></g></g></g><path clip-rule="evenodd" d="m189.958 381.812c4.879 0 8.84-3.961 8.84-8.855 0-4.879-3.962-8.836-8.84-8.836-4.879 0-8.84 3.957-8.84 8.836 0 4.894 3.961 8.855 8.84 8.855zm20.772-292.937c0-5.618-4.573-10.186-10.19-10.186h-89.331c-5.623 0-10.191 4.568-10.191 10.186v65.19h16.942v-41.125c0-9.546 7.758-17.314 17.309-17.314h75.461zm-117.131 79.187h117.131v205.846c0 11.461-9.32 20.772-20.772 20.772s-20.772-9.311-20.772-20.772v-112.022c0-2.917-1.806-5.523-4.526-6.549l-32.699-12.308v-10.2h12.336c3.862 0 7.001-3.133 7.001-6.996v-30.939c0-3.867-3.138-7.001-7.001-7.001h-50.698zm65.858-13.997v-16.937h51.273v16.937zm-41.497 108v-29.236h-16.942v29.236c0 4.672 3.801 8.469 8.469 8.469 4.672-.001 8.473-3.798 8.473-8.469zm-34.91-43.233h54.247v-16.937h-54.247zm141.682-129.957v13.747c0 3.867-3.143 7.001-7.001 7.001h-82.462c-1.83 0-3.307 1.487-3.307 3.317v41.125h13.498v-23.938c0-1.859.739-3.637 2.051-4.954 1.308-1.308 3.086-2.047 4.95-2.047h65.27c3.858 0 7.001 3.133 7.001 7.001v243.781c0 19.181-15.601 34.773-34.773 34.773-19.168 0-34.769-15.592-34.769-34.773v-107.176l-23.228-8.742v4.074c0 12.393-10.082 22.47-22.475 22.47-12.388 0-22.466-10.078-22.466-22.47v-29.236h-10.972c-3.872 0-7.001-3.133-7.001-6.996v-30.939c0-3.867 3.129-7.001 7.001-7.001h3.552v-26.827c0-3.868 3.129-7.001 6.996-7.001h.424v-65.19c0-13.338 10.849-24.188 24.188-24.188h89.331c13.338.001 24.192 10.85 24.192 24.189zm185.935 271.036-25.98 25.98-12.816-12.83c-2.743-2.733-7.17-2.733-9.904 0-2.738 2.738-2.738 7.17 0 9.899l17.77 17.779c1.369 1.36 3.162 2.051 4.95 2.051 1.793 0 3.595-.692 4.954-2.051l30.93-30.93c2.729-2.729 2.729-7.161 0-9.899-2.743-2.728-7.171-2.728-9.904.001zm24.554 18.786c0 23.543-19.153 42.692-42.692 42.692-23.543 0-42.692-19.149-42.692-42.692 0-23.538 19.149-42.687 42.692-42.687 23.539.001 42.692 19.149 42.692 42.687zm13.997 0c0 31.264-25.43 56.694-56.689 56.694s-56.689-25.43-56.689-56.694c0-31.259 25.43-56.689 56.689-56.689 31.26.001 56.689 25.43 56.689 56.689zm4.249 83.973-10.727-18.589c-8.661 6.667-18.659 11.659-29.532 14.482l11.842 20.508 5.011-14.881c1.12-3.341 4.559-5.331 8.017-4.63zm-60.937-15.48c-37.761 0-68.493-30.732-68.493-68.493 0-37.756 30.732-68.488 68.493-68.488s68.488 30.732 68.488 68.488c0 37.762-30.727 68.493-68.488 68.493zm-20.683 11.372c-10.868-2.823-20.866-7.815-29.518-14.482l-10.732 18.589 15.39-3.11c3.453-.687 6.893 1.289 8.012 4.63l5.01 14.881zm-49.316-8.191h-271.554v-427.369h262.784v64.767c0 3.867 3.138 7.001 6.996 7.001h64.772v201.762c-42.221 3.571-75.489 39.05-75.489 82.165 0 21.454 8.238 41.012 21.708 55.701zm5.227-369.603h47.872l-47.872-47.867zm145.582 388.333c1.379 2.381 1.228 5.349-.372 7.579-1.609 2.24-4.38 3.322-7.071 2.781l-24.536-4.949-7.984 23.717c-.88 2.611-3.199 4.46-5.938 4.743-.231.019-.47.028-.701.028-2.479 0-4.799-1.322-6.06-3.5l-22.249-38.552c-1.953.141-3.91.245-5.9.245-1.98 0-3.943-.103-5.89-.245l-22.259 38.552c-1.261 2.178-3.58 3.5-6.06 3.5-.23 0-.461-.009-.701-.028-2.743-.282-5.062-2.131-5.942-4.743l-7.979-23.717-24.531 4.949c-2.701.541-5.467-.541-7.067-2.781-1.614-2.23-1.76-5.199-.381-7.579l2.729-4.733h-270.467c-3.863 0-7.001-3.138-7.001-7.001v-441.366c0-3.867 3.138-7.001 7.001-7.001h276.776c1.863 0 3.642.738 4.95 2.051l71.772 71.768c1.308 1.313 2.051 3.096 2.051 4.949v208.763c42.217 3.571 75.489 39.05 75.489 82.165 0 21.454-8.243 41.012-21.708 55.701zm-105.873-194.432c0-3.867-3.138-7.001-6.996-7.001h-107.52c-3.872 0-7.001 3.133-7.001 7.001 0 3.863 3.129 7.001 7.001 7.001h107.52c3.858 0 6.996-3.138 6.996-7.001zm-114.516-121.889h107.52c3.858 0 6.996-3.138 6.996-7.001 0-3.867-3.138-7.001-6.996-7.001h-107.52c-3.872 0-7.001 3.133-7.001 7.001.001 3.863 3.129 7.001 7.001 7.001zm0 42.96h107.52c3.858 0 6.996-3.133 6.996-7.001 0-3.863-3.138-6.996-6.996-6.996h-107.52c-3.872 0-7.001 3.133-7.001 6.996.001 3.868 3.129 7.001 7.001 7.001zm-7 35.964c0 3.868 3.129 7.001 7.001 7.001h107.52c3.858 0 6.996-3.133 6.996-7.001 0-3.863-3.138-6.996-6.996-6.996h-107.52c-3.873 0-7.001 3.134-7.001 6.996z" fill-rule="evenodd"/></g></svg>